<?xml version="1.0" standalone="no"?>
<!DOCTYPE svg PUBLIC "-//W3C//DTD SVG 20010904//EN"
 "http://www.w3.org/TR/2001/REC-SVG-20010904/DTD/svg10.dtd">
<svg version="1.0" xmlns="http://www.w3.org/2000/svg"
 width="1280.000000pt" height="695.000000pt" viewBox="0 0 1280.000000 695.000000"
 preserveAspectRatio="xMidYMid meet">
<metadata>
Created by potrace 1.15, written by Peter Selinger 2001-2017
</metadata>
<g transform="translate(0.000000,695.000000) scale(0.100000,-0.100000)"
fill="#000000" stroke="none">
<path d="M1285 6815 c-5 -2 -22 -6 -36 -9 -41 -9 -78 -54 -98 -122 -11 -34
-36 -192 -56 -351 -19 -158 -38 -298 -40 -310 -4 -18 -1 -23 16 -23 16 0 19
-4 14 -17 -4 -10 -9 -44 -12 -76 -10 -105 31 -158 155 -198 33 -10 47 -18 34
-18 -24 -1 -24 -1 7 -39 52 -67 146 -105 341 -141 30 -6 190 -33 355 -61 165
-28 377 -65 470 -81 269 -46 906 -155 1315 -224 206 -35 454 -77 550 -94 96
-17 254 -44 350 -60 96 -17 335 -57 530 -91 1192 -205 1192 -205 1278 -189 68
13 99 28 172 84 67 52 126 83 250 131 52 20 130 54 173 76 165 82 225 85 652
23 617 -88 931 -136 989 -151 33 -9 70 -14 83 -11 13 2 23 3 23 1 0 -6 -372
-224 -555 -326 -1701 -946 -3473 -1632 -5553 -2152 -414 -104 -763 -185 -1157
-270 -332 -71 -932 -191 -1010 -201 -120 -16 -212 -74 -251 -159 -29 -62 -30
-116 -5 -211 28 -108 24 -103 400 -640 224 -322 208 -301 261 -337 29 -20 36
-28 20 -23 -47 15 81 -84 137 -105 101 -38 139 -31 623 104 279 79 400 113
575 161 1847 514 3087 954 4315 1529 385 181 1024 516 1333 700 43 25 81 46
83 46 3 0 30 16 60 35 30 19 56 35 58 35 5 0 337 205 501 310 135 86 474 311
566 376 309 217 518 370 889 654 80 61 168 124 197 141 103 60 116 61 523 69
493 10 767 45 1158 149 129 35 178 55 191 79 8 15 4 22 -20 36 -35 20 -77 24
-164 14 -52 -6 -48 -4 25 11 47 10 140 29 207 41 138 26 120 5 153 170 10 52
17 96 15 98 -2 2 -47 -1 -101 -7 -169 -18 -412 -31 -577 -31 -351 0 -997 57
-1017 90 -4 6 -17 59 -29 118 -30 143 -60 258 -82 308 -53 127 -183 186 -295
135 -22 -10 -162 -102 -311 -205 -153 -106 -280 -186 -293 -186 -12 0 -234 47
-494 104 -259 58 -637 137 -841 176 -203 39 -557 107 -785 151 -1920 370
-2795 529 -3640 659 -901 139 -1660 232 -2320 285 -107 8 -217 17 -245 19 -27
3 -54 3 -60 1z m10618 -1952 c-7 -2 -21 -2 -30 0 -10 3 -4 5 12 5 17 0 24 -2
18 -5z m-66 -9 c-3 -3 -12 -4 -19 -1 -8 3 -5 6 6 6 11 1 17 -2 13 -5z"/>
</g>
</svg>
